<mxfile host="Electron" agent="Mozilla/5.0 (Windows NT 10.0; Win64; x64) AppleWebKit/537.36 (KHTML, like Gecko) draw.io/26.2.2 Chrome/134.0.6998.178 Electron/35.1.2 Safari/537.36" version="26.2.2">
  <diagram name="第 1 页" id="yfNe5Ifp2At77hMkirVM">
    <mxGraphModel dx="1428" dy="2018" grid="1" gridSize="10" guides="1" tooltips="1" connect="1" arrows="1" fold="1" page="1" pageScale="1" pageWidth="827" pageHeight="1169" math="0" shadow="0">
      <root>
        <mxCell id="0" />
        <mxCell id="1" parent="0" />
        <mxCell id="YMQhunMNkOnp3xdV8ZyM-81" style="edgeStyle=orthogonalEdgeStyle;rounded=0;orthogonalLoop=1;jettySize=auto;html=1;entryX=1;entryY=0.5;entryDx=0;entryDy=0;" edge="1" parent="1" source="YMQhunMNkOnp3xdV8ZyM-80" target="YMQhunMNkOnp3xdV8ZyM-53">
          <mxGeometry relative="1" as="geometry">
            <Array as="points">
              <mxPoint x="1360" y="1940" />
              <mxPoint x="1360" y="1392" />
            </Array>
          </mxGeometry>
        </mxCell>
        <mxCell id="YMQhunMNkOnp3xdV8ZyM-80" value="" style="rounded=0;whiteSpace=wrap;html=1;fillColor=#fff2cc;strokeColor=#d6b656;" vertex="1" parent="1">
          <mxGeometry x="862.5" y="1870" width="377.5" height="140" as="geometry" />
        </mxCell>
        <mxCell id="YMQhunMNkOnp3xdV8ZyM-75" value="" style="rounded=0;whiteSpace=wrap;html=1;fillColor=#dae8fc;strokeColor=#6c8ebf;" vertex="1" parent="1">
          <mxGeometry x="320" y="1620" width="400" height="300" as="geometry" />
        </mxCell>
        <mxCell id="YMQhunMNkOnp3xdV8ZyM-74" value="" style="rounded=0;whiteSpace=wrap;html=1;fillColor=#dae8fc;strokeColor=#6c8ebf;" vertex="1" parent="1">
          <mxGeometry x="295" y="1210" width="400" height="300" as="geometry" />
        </mxCell>
        <mxCell id="YMQhunMNkOnp3xdV8ZyM-10" style="edgeStyle=orthogonalEdgeStyle;rounded=0;orthogonalLoop=1;jettySize=auto;html=1;entryX=0;entryY=0.5;entryDx=0;entryDy=0;exitX=1;exitY=0.5;exitDx=0;exitDy=0;" edge="1" parent="1" source="YMQhunMNkOnp3xdV8ZyM-17" target="YMQhunMNkOnp3xdV8ZyM-2">
          <mxGeometry relative="1" as="geometry" />
        </mxCell>
        <mxCell id="YMQhunMNkOnp3xdV8ZyM-11" style="edgeStyle=orthogonalEdgeStyle;rounded=0;orthogonalLoop=1;jettySize=auto;html=1;entryX=0;entryY=0.5;entryDx=0;entryDy=0;exitX=1;exitY=0.5;exitDx=0;exitDy=0;" edge="1" parent="1" source="YMQhunMNkOnp3xdV8ZyM-17" target="YMQhunMNkOnp3xdV8ZyM-9">
          <mxGeometry relative="1" as="geometry">
            <mxPoint x="300.5" y="50" as="sourcePoint" />
            <mxPoint x="530.5" y="150" as="targetPoint" />
          </mxGeometry>
        </mxCell>
        <mxCell id="YMQhunMNkOnp3xdV8ZyM-18" style="edgeStyle=orthogonalEdgeStyle;rounded=0;orthogonalLoop=1;jettySize=auto;html=1;entryX=0;entryY=0.5;entryDx=0;entryDy=0;" edge="1" parent="1" source="YMQhunMNkOnp3xdV8ZyM-1" target="YMQhunMNkOnp3xdV8ZyM-17">
          <mxGeometry relative="1" as="geometry" />
        </mxCell>
        <mxCell id="YMQhunMNkOnp3xdV8ZyM-1" value="Consumer" style="ellipse;whiteSpace=wrap;html=1;" vertex="1" parent="1">
          <mxGeometry x="42.5" width="110" height="70" as="geometry" />
        </mxCell>
        <mxCell id="YMQhunMNkOnp3xdV8ZyM-13" style="edgeStyle=orthogonalEdgeStyle;rounded=0;orthogonalLoop=1;jettySize=auto;html=1;entryX=0;entryY=0.5;entryDx=0;entryDy=0;" edge="1" parent="1" source="YMQhunMNkOnp3xdV8ZyM-2" target="YMQhunMNkOnp3xdV8ZyM-3">
          <mxGeometry relative="1" as="geometry">
            <Array as="points">
              <mxPoint x="832.5" y="5" />
              <mxPoint x="832.5" y="-135" />
            </Array>
          </mxGeometry>
        </mxCell>
        <mxCell id="YMQhunMNkOnp3xdV8ZyM-14" style="edgeStyle=orthogonalEdgeStyle;rounded=0;orthogonalLoop=1;jettySize=auto;html=1;entryX=0;entryY=0.5;entryDx=0;entryDy=0;" edge="1" parent="1" source="YMQhunMNkOnp3xdV8ZyM-2" target="YMQhunMNkOnp3xdV8ZyM-7">
          <mxGeometry relative="1" as="geometry">
            <Array as="points">
              <mxPoint x="832.5" y="5" />
              <mxPoint x="832.5" y="175" />
            </Array>
          </mxGeometry>
        </mxCell>
        <mxCell id="YMQhunMNkOnp3xdV8ZyM-2" value="API Gateway" style="rounded=0;whiteSpace=wrap;html=1;" vertex="1" parent="1">
          <mxGeometry x="522.5" y="-55" width="140" height="80" as="geometry" />
        </mxCell>
        <mxCell id="YMQhunMNkOnp3xdV8ZyM-3" value="UserService" style="ellipse;whiteSpace=wrap;html=1;" vertex="1" parent="1">
          <mxGeometry x="912.5" y="-175" width="120" height="80" as="geometry" />
        </mxCell>
        <mxCell id="YMQhunMNkOnp3xdV8ZyM-4" value="UserService" style="ellipse;whiteSpace=wrap;html=1;" vertex="1" parent="1">
          <mxGeometry x="972.5" y="-135" width="120" height="80" as="geometry" />
        </mxCell>
        <mxCell id="YMQhunMNkOnp3xdV8ZyM-5" value="ProjectService" style="ellipse;whiteSpace=wrap;html=1;" vertex="1" parent="1">
          <mxGeometry x="902.5" y="-25" width="130" height="80" as="geometry" />
        </mxCell>
        <mxCell id="YMQhunMNkOnp3xdV8ZyM-6" value="ProjectService" style="ellipse;whiteSpace=wrap;html=1;" vertex="1" parent="1">
          <mxGeometry x="982.5" y="25" width="120" height="80" as="geometry" />
        </mxCell>
        <mxCell id="YMQhunMNkOnp3xdV8ZyM-7" value="ContractService" style="ellipse;whiteSpace=wrap;html=1;" vertex="1" parent="1">
          <mxGeometry x="912.5" y="135" width="120" height="80" as="geometry" />
        </mxCell>
        <mxCell id="YMQhunMNkOnp3xdV8ZyM-8" value="ContractService" style="ellipse;whiteSpace=wrap;html=1;" vertex="1" parent="1">
          <mxGeometry x="982.5" y="165" width="120" height="80" as="geometry" />
        </mxCell>
        <mxCell id="YMQhunMNkOnp3xdV8ZyM-19" style="edgeStyle=orthogonalEdgeStyle;rounded=0;orthogonalLoop=1;jettySize=auto;html=1;entryX=0;entryY=0.5;entryDx=0;entryDy=0;" edge="1" parent="1" source="YMQhunMNkOnp3xdV8ZyM-9" target="YMQhunMNkOnp3xdV8ZyM-5">
          <mxGeometry relative="1" as="geometry">
            <Array as="points">
              <mxPoint x="832.5" y="125" />
              <mxPoint x="832.5" />
              <mxPoint x="872.5" />
              <mxPoint x="872.5" y="15" />
            </Array>
          </mxGeometry>
        </mxCell>
        <mxCell id="YMQhunMNkOnp3xdV8ZyM-9" value="API Gateway" style="rounded=0;whiteSpace=wrap;html=1;" vertex="1" parent="1">
          <mxGeometry x="522.5" y="85" width="140" height="80" as="geometry" />
        </mxCell>
        <mxCell id="YMQhunMNkOnp3xdV8ZyM-17" value="LB" style="ellipse;whiteSpace=wrap;html=1;" vertex="1" parent="1">
          <mxGeometry x="242.5" y="10" width="77.5" height="50" as="geometry" />
        </mxCell>
        <mxCell id="YMQhunMNkOnp3xdV8ZyM-20" value="api jessetalk.cn/users(1)" style="text;html=1;align=center;verticalAlign=middle;resizable=0;points=[];autosize=1;strokeColor=none;fillColor=none;" vertex="1" parent="1">
          <mxGeometry x="27.5" y="-42" width="150" height="30" as="geometry" />
        </mxCell>
        <mxCell id="YMQhunMNkOnp3xdV8ZyM-21" value="192.168.10.3/api/users(1)" style="text;html=1;align=center;verticalAlign=middle;resizable=0;points=[];autosize=1;strokeColor=none;fillColor=none;" vertex="1" parent="1">
          <mxGeometry x="912.5" y="-212" width="160" height="30" as="geometry" />
        </mxCell>
        <mxCell id="YMQhunMNkOnp3xdV8ZyM-22" value="192.168.10.4/api/users(1)" style="text;html=1;align=center;verticalAlign=middle;resizable=0;points=[];autosize=1;strokeColor=none;fillColor=none;" vertex="1" parent="1">
          <mxGeometry x="1052.5" y="-165" width="160" height="30" as="geometry" />
        </mxCell>
        <mxCell id="YMQhunMNkOnp3xdV8ZyM-23" value="API 网关与服务发现" style="text;html=1;align=center;verticalAlign=middle;resizable=0;points=[];autosize=1;strokeColor=none;fillColor=none;fontStyle=1;fontSize=32;" vertex="1" parent="1">
          <mxGeometry x="465" y="-262" width="310" height="50" as="geometry" />
        </mxCell>
        <mxCell id="YMQhunMNkOnp3xdV8ZyM-24" value="Consumer" style="ellipse;whiteSpace=wrap;html=1;" vertex="1" parent="1">
          <mxGeometry x="170" y="650" width="110" height="70" as="geometry" />
        </mxCell>
        <mxCell id="YMQhunMNkOnp3xdV8ZyM-33" style="edgeStyle=orthogonalEdgeStyle;rounded=0;orthogonalLoop=1;jettySize=auto;html=1;entryX=1;entryY=0.5;entryDx=0;entryDy=0;" edge="1" parent="1" target="YMQhunMNkOnp3xdV8ZyM-26">
          <mxGeometry relative="1" as="geometry">
            <mxPoint x="502.5" y="490" as="sourcePoint" />
            <mxPoint x="882.5" y="620" as="targetPoint" />
            <Array as="points">
              <mxPoint x="482.5" y="490" />
              <mxPoint x="482.5" y="460" />
              <mxPoint x="902.5" y="460" />
              <mxPoint x="902.5" y="620" />
            </Array>
          </mxGeometry>
        </mxCell>
        <mxCell id="YMQhunMNkOnp3xdV8ZyM-34" style="edgeStyle=orthogonalEdgeStyle;rounded=0;orthogonalLoop=1;jettySize=auto;html=1;entryX=1;entryY=0.5;entryDx=0;entryDy=0;" edge="1" parent="1" source="YMQhunMNkOnp3xdV8ZyM-25" target="YMQhunMNkOnp3xdV8ZyM-27">
          <mxGeometry relative="1" as="geometry">
            <Array as="points">
              <mxPoint x="482.5" y="460" />
              <mxPoint x="902.5" y="460" />
              <mxPoint x="902.5" y="785" />
            </Array>
          </mxGeometry>
        </mxCell>
        <mxCell id="YMQhunMNkOnp3xdV8ZyM-35" style="edgeStyle=orthogonalEdgeStyle;rounded=0;orthogonalLoop=1;jettySize=auto;html=1;entryX=1;entryY=0.5;entryDx=0;entryDy=0;" edge="1" parent="1" source="YMQhunMNkOnp3xdV8ZyM-25" target="YMQhunMNkOnp3xdV8ZyM-28">
          <mxGeometry relative="1" as="geometry">
            <Array as="points">
              <mxPoint x="482.5" y="460" />
              <mxPoint x="902.5" y="460" />
              <mxPoint x="902.5" y="950" />
            </Array>
          </mxGeometry>
        </mxCell>
        <mxCell id="YMQhunMNkOnp3xdV8ZyM-25" value="Service Register" style="rounded=0;whiteSpace=wrap;html=1;fillColor=#ffe6cc;strokeColor=#d79b00;" vertex="1" parent="1">
          <mxGeometry x="422.5" y="490" width="120" height="60" as="geometry" />
        </mxCell>
        <mxCell id="YMQhunMNkOnp3xdV8ZyM-29" style="edgeStyle=orthogonalEdgeStyle;rounded=0;orthogonalLoop=1;jettySize=auto;html=1;entryX=1;entryY=0.5;entryDx=0;entryDy=0;" edge="1" parent="1" source="YMQhunMNkOnp3xdV8ZyM-26" target="YMQhunMNkOnp3xdV8ZyM-25">
          <mxGeometry relative="1" as="geometry" />
        </mxCell>
        <mxCell id="YMQhunMNkOnp3xdV8ZyM-26" value="UserService" style="ellipse;whiteSpace=wrap;html=1;" vertex="1" parent="1">
          <mxGeometry x="742.5" y="580" width="120" height="80" as="geometry" />
        </mxCell>
        <mxCell id="YMQhunMNkOnp3xdV8ZyM-30" style="edgeStyle=orthogonalEdgeStyle;rounded=0;orthogonalLoop=1;jettySize=auto;html=1;entryX=1;entryY=0.5;entryDx=0;entryDy=0;" edge="1" parent="1" source="YMQhunMNkOnp3xdV8ZyM-27" target="YMQhunMNkOnp3xdV8ZyM-25">
          <mxGeometry relative="1" as="geometry" />
        </mxCell>
        <mxCell id="YMQhunMNkOnp3xdV8ZyM-27" value="ProjectService" style="ellipse;whiteSpace=wrap;html=1;" vertex="1" parent="1">
          <mxGeometry x="742.5" y="745" width="120" height="80" as="geometry" />
        </mxCell>
        <mxCell id="YMQhunMNkOnp3xdV8ZyM-31" style="edgeStyle=orthogonalEdgeStyle;rounded=0;orthogonalLoop=1;jettySize=auto;html=1;entryX=1;entryY=0.5;entryDx=0;entryDy=0;" edge="1" parent="1" source="YMQhunMNkOnp3xdV8ZyM-28" target="YMQhunMNkOnp3xdV8ZyM-25">
          <mxGeometry relative="1" as="geometry" />
        </mxCell>
        <mxCell id="YMQhunMNkOnp3xdV8ZyM-28" value="ContractService" style="ellipse;whiteSpace=wrap;html=1;" vertex="1" parent="1">
          <mxGeometry x="742.5" y="910" width="120" height="80" as="geometry" />
        </mxCell>
        <mxCell id="YMQhunMNkOnp3xdV8ZyM-32" value="1. 服务注册" style="text;html=1;align=center;verticalAlign=middle;resizable=0;points=[];autosize=1;strokeColor=none;fillColor=none;" vertex="1" parent="1">
          <mxGeometry x="657.5" y="590" width="80" height="30" as="geometry" />
        </mxCell>
        <mxCell id="YMQhunMNkOnp3xdV8ZyM-36" value="2. 健康检查" style="text;html=1;align=center;verticalAlign=middle;resizable=0;points=[];autosize=1;strokeColor=none;fillColor=none;" vertex="1" parent="1">
          <mxGeometry x="657.5" y="420" width="80" height="30" as="geometry" />
        </mxCell>
        <mxCell id="YMQhunMNkOnp3xdV8ZyM-38" style="edgeStyle=orthogonalEdgeStyle;rounded=0;orthogonalLoop=1;jettySize=auto;html=1;entryX=0.5;entryY=1;entryDx=0;entryDy=0;" edge="1" parent="1" source="YMQhunMNkOnp3xdV8ZyM-37" target="YMQhunMNkOnp3xdV8ZyM-25">
          <mxGeometry relative="1" as="geometry" />
        </mxCell>
        <mxCell id="YMQhunMNkOnp3xdV8ZyM-39" style="edgeStyle=orthogonalEdgeStyle;rounded=0;orthogonalLoop=1;jettySize=auto;html=1;" edge="1" parent="1" source="YMQhunMNkOnp3xdV8ZyM-37">
          <mxGeometry relative="1" as="geometry">
            <mxPoint x="642.5" y="680" as="targetPoint" />
          </mxGeometry>
        </mxCell>
        <mxCell id="YMQhunMNkOnp3xdV8ZyM-44" style="edgeStyle=orthogonalEdgeStyle;rounded=0;orthogonalLoop=1;jettySize=auto;html=1;entryX=0.5;entryY=1;entryDx=0;entryDy=0;" edge="1" parent="1" source="YMQhunMNkOnp3xdV8ZyM-37" target="YMQhunMNkOnp3xdV8ZyM-24">
          <mxGeometry relative="1" as="geometry">
            <Array as="points">
              <mxPoint x="432.5" y="790" />
              <mxPoint x="225.5" y="790" />
            </Array>
          </mxGeometry>
        </mxCell>
        <mxCell id="YMQhunMNkOnp3xdV8ZyM-37" value="API Gateway" style="rounded=0;whiteSpace=wrap;html=1;" vertex="1" parent="1">
          <mxGeometry x="362.5" y="650" width="140" height="80" as="geometry" />
        </mxCell>
        <mxCell id="YMQhunMNkOnp3xdV8ZyM-40" value="持续性的" style="text;html=1;align=center;verticalAlign=middle;resizable=0;points=[];autosize=1;strokeColor=none;fillColor=none;" vertex="1" parent="1">
          <mxGeometry x="727.5" y="418" width="70" height="30" as="geometry" />
        </mxCell>
        <mxCell id="YMQhunMNkOnp3xdV8ZyM-42" value="3 获取服务地址" style="text;html=1;align=center;verticalAlign=middle;resizable=0;points=[];autosize=1;strokeColor=none;fillColor=none;" vertex="1" parent="1">
          <mxGeometry x="352.5" y="570" width="110" height="30" as="geometry" />
        </mxCell>
        <mxCell id="YMQhunMNkOnp3xdV8ZyM-43" value="4 向下游服务发送请求" style="text;html=1;align=center;verticalAlign=middle;resizable=0;points=[];autosize=1;strokeColor=none;fillColor=none;" vertex="1" parent="1">
          <mxGeometry x="502.5" y="698" width="140" height="30" as="geometry" />
        </mxCell>
        <mxCell id="YMQhunMNkOnp3xdV8ZyM-45" value="5 返回结果" style="text;html=1;align=center;verticalAlign=middle;resizable=0;points=[];autosize=1;strokeColor=none;fillColor=none;" vertex="1" parent="1">
          <mxGeometry x="295" y="790" width="80" height="30" as="geometry" />
        </mxCell>
        <mxCell id="YMQhunMNkOnp3xdV8ZyM-46" value="此时的 Service Regiser是在另一台服务器上，&lt;div&gt;&lt;br&gt;&lt;/div&gt;&lt;div&gt;有性能开销&lt;div&gt;&lt;br&gt;&lt;/div&gt;&lt;/div&gt;" style="text;html=1;align=center;verticalAlign=middle;resizable=0;points=[];autosize=1;strokeColor=none;fillColor=none;" vertex="1" parent="1">
          <mxGeometry x="212.5" y="380" width="270" height="70" as="geometry" />
        </mxCell>
        <mxCell id="YMQhunMNkOnp3xdV8ZyM-73" style="edgeStyle=orthogonalEdgeStyle;rounded=0;orthogonalLoop=1;jettySize=auto;html=1;" edge="1" parent="1" source="YMQhunMNkOnp3xdV8ZyM-47" target="YMQhunMNkOnp3xdV8ZyM-63">
          <mxGeometry relative="1" as="geometry" />
        </mxCell>
        <mxCell id="YMQhunMNkOnp3xdV8ZyM-47" value="Consumer" style="ellipse;whiteSpace=wrap;html=1;" vertex="1" parent="1">
          <mxGeometry x="47.5" y="1410" width="110" height="70" as="geometry" />
        </mxCell>
        <mxCell id="YMQhunMNkOnp3xdV8ZyM-48" style="edgeStyle=orthogonalEdgeStyle;rounded=0;orthogonalLoop=1;jettySize=auto;html=1;entryX=1;entryY=0.5;entryDx=0;entryDy=0;exitX=0.5;exitY=0;exitDx=0;exitDy=0;" edge="1" parent="1" target="YMQhunMNkOnp3xdV8ZyM-53" source="YMQhunMNkOnp3xdV8ZyM-51">
          <mxGeometry relative="1" as="geometry">
            <mxPoint x="672.5" y="1262" as="sourcePoint" />
            <mxPoint x="1052.5" y="1392" as="targetPoint" />
            <Array as="points">
              <mxPoint x="560" y="1170" />
              <mxPoint x="1073" y="1170" />
              <mxPoint x="1073" y="1392" />
            </Array>
          </mxGeometry>
        </mxCell>
        <mxCell id="YMQhunMNkOnp3xdV8ZyM-49" style="edgeStyle=orthogonalEdgeStyle;rounded=0;orthogonalLoop=1;jettySize=auto;html=1;entryX=1;entryY=0.5;entryDx=0;entryDy=0;" edge="1" parent="1" source="YMQhunMNkOnp3xdV8ZyM-51" target="YMQhunMNkOnp3xdV8ZyM-55">
          <mxGeometry relative="1" as="geometry">
            <Array as="points">
              <mxPoint x="560" y="1170" />
              <mxPoint x="1073" y="1170" />
              <mxPoint x="1073" y="1557" />
            </Array>
          </mxGeometry>
        </mxCell>
        <mxCell id="YMQhunMNkOnp3xdV8ZyM-50" style="edgeStyle=orthogonalEdgeStyle;rounded=0;orthogonalLoop=1;jettySize=auto;html=1;entryX=1;entryY=0.5;entryDx=0;entryDy=0;" edge="1" parent="1" source="YMQhunMNkOnp3xdV8ZyM-51" target="YMQhunMNkOnp3xdV8ZyM-57">
          <mxGeometry relative="1" as="geometry">
            <Array as="points">
              <mxPoint x="560" y="1170" />
              <mxPoint x="1073" y="1170" />
              <mxPoint x="1073" y="1722" />
            </Array>
          </mxGeometry>
        </mxCell>
        <mxCell id="YMQhunMNkOnp3xdV8ZyM-51" value="Service Register" style="rounded=0;whiteSpace=wrap;html=1;fillColor=#ffe6cc;strokeColor=#d79b00;" vertex="1" parent="1">
          <mxGeometry x="502.5" y="1240" width="120" height="60" as="geometry" />
        </mxCell>
        <mxCell id="YMQhunMNkOnp3xdV8ZyM-52" style="edgeStyle=orthogonalEdgeStyle;rounded=0;orthogonalLoop=1;jettySize=auto;html=1;entryX=1;entryY=0.5;entryDx=0;entryDy=0;" edge="1" parent="1" source="YMQhunMNkOnp3xdV8ZyM-53" target="YMQhunMNkOnp3xdV8ZyM-51">
          <mxGeometry relative="1" as="geometry" />
        </mxCell>
        <mxCell id="YMQhunMNkOnp3xdV8ZyM-53" value="UserService" style="ellipse;whiteSpace=wrap;html=1;" vertex="1" parent="1">
          <mxGeometry x="912.5" y="1352" width="120" height="80" as="geometry" />
        </mxCell>
        <mxCell id="YMQhunMNkOnp3xdV8ZyM-54" style="edgeStyle=orthogonalEdgeStyle;rounded=0;orthogonalLoop=1;jettySize=auto;html=1;entryX=1;entryY=0.5;entryDx=0;entryDy=0;" edge="1" parent="1" source="YMQhunMNkOnp3xdV8ZyM-55" target="YMQhunMNkOnp3xdV8ZyM-51">
          <mxGeometry relative="1" as="geometry" />
        </mxCell>
        <mxCell id="YMQhunMNkOnp3xdV8ZyM-55" value="ProjectService" style="ellipse;whiteSpace=wrap;html=1;" vertex="1" parent="1">
          <mxGeometry x="912.5" y="1517" width="120" height="80" as="geometry" />
        </mxCell>
        <mxCell id="YMQhunMNkOnp3xdV8ZyM-56" style="edgeStyle=orthogonalEdgeStyle;rounded=0;orthogonalLoop=1;jettySize=auto;html=1;entryX=1;entryY=0.5;entryDx=0;entryDy=0;" edge="1" parent="1" source="YMQhunMNkOnp3xdV8ZyM-57" target="YMQhunMNkOnp3xdV8ZyM-51">
          <mxGeometry relative="1" as="geometry" />
        </mxCell>
        <mxCell id="YMQhunMNkOnp3xdV8ZyM-57" value="ContractService" style="ellipse;whiteSpace=wrap;html=1;" vertex="1" parent="1">
          <mxGeometry x="912.5" y="1682" width="120" height="80" as="geometry" />
        </mxCell>
        <mxCell id="YMQhunMNkOnp3xdV8ZyM-58" value="1. 服务注册" style="text;html=1;align=center;verticalAlign=middle;resizable=0;points=[];autosize=1;strokeColor=none;fillColor=none;" vertex="1" parent="1">
          <mxGeometry x="827.5" y="1362" width="80" height="30" as="geometry" />
        </mxCell>
        <mxCell id="YMQhunMNkOnp3xdV8ZyM-59" value="2. 健康检查" style="text;html=1;align=center;verticalAlign=middle;resizable=0;points=[];autosize=1;strokeColor=none;fillColor=none;" vertex="1" parent="1">
          <mxGeometry x="695" y="1100" width="80" height="30" as="geometry" />
        </mxCell>
        <mxCell id="YMQhunMNkOnp3xdV8ZyM-60" style="edgeStyle=orthogonalEdgeStyle;rounded=0;orthogonalLoop=1;jettySize=auto;html=1;" edge="1" parent="1" source="YMQhunMNkOnp3xdV8ZyM-63">
          <mxGeometry relative="1" as="geometry">
            <mxPoint x="560" y="1300" as="targetPoint" />
            <Array as="points">
              <mxPoint x="414" y="1330" />
              <mxPoint x="560" y="1330" />
            </Array>
          </mxGeometry>
        </mxCell>
        <mxCell id="YMQhunMNkOnp3xdV8ZyM-61" style="edgeStyle=orthogonalEdgeStyle;rounded=0;orthogonalLoop=1;jettySize=auto;html=1;" edge="1" parent="1" source="YMQhunMNkOnp3xdV8ZyM-63">
          <mxGeometry relative="1" as="geometry">
            <mxPoint x="770" y="1450" as="targetPoint" />
          </mxGeometry>
        </mxCell>
        <mxCell id="YMQhunMNkOnp3xdV8ZyM-62" style="edgeStyle=orthogonalEdgeStyle;rounded=0;orthogonalLoop=1;jettySize=auto;html=1;entryX=0.5;entryY=1;entryDx=0;entryDy=0;exitX=0.45;exitY=1;exitDx=0;exitDy=0;exitPerimeter=0;" edge="1" parent="1" source="YMQhunMNkOnp3xdV8ZyM-63" target="YMQhunMNkOnp3xdV8ZyM-47">
          <mxGeometry relative="1" as="geometry">
            <Array as="points">
              <mxPoint x="463" y="1554" />
              <mxPoint x="103" y="1554" />
            </Array>
          </mxGeometry>
        </mxCell>
        <mxCell id="YMQhunMNkOnp3xdV8ZyM-63" value="API Gateway" style="rounded=0;whiteSpace=wrap;html=1;" vertex="1" parent="1">
          <mxGeometry x="343.5" y="1405" width="140" height="80" as="geometry" />
        </mxCell>
        <mxCell id="YMQhunMNkOnp3xdV8ZyM-64" value="持续性的" style="text;html=1;align=center;verticalAlign=middle;resizable=0;points=[];autosize=1;strokeColor=none;fillColor=none;" vertex="1" parent="1">
          <mxGeometry x="780" y="1100" width="70" height="30" as="geometry" />
        </mxCell>
        <mxCell id="YMQhunMNkOnp3xdV8ZyM-65" value="3 获取服务地址" style="text;html=1;align=center;verticalAlign=middle;resizable=0;points=[];autosize=1;strokeColor=none;fillColor=none;" vertex="1" parent="1">
          <mxGeometry x="342.5" y="1290" width="110" height="30" as="geometry" />
        </mxCell>
        <mxCell id="YMQhunMNkOnp3xdV8ZyM-66" value="4 向下游服务发送请求" style="text;html=1;align=center;verticalAlign=middle;resizable=0;points=[];autosize=1;strokeColor=none;fillColor=none;" vertex="1" parent="1">
          <mxGeometry x="672.5" y="1470" width="140" height="30" as="geometry" />
        </mxCell>
        <mxCell id="YMQhunMNkOnp3xdV8ZyM-67" value="5 返回结果" style="text;html=1;align=center;verticalAlign=middle;resizable=0;points=[];autosize=1;strokeColor=none;fillColor=none;" vertex="1" parent="1">
          <mxGeometry x="277.5" y="1554" width="80" height="30" as="geometry" />
        </mxCell>
        <mxCell id="YMQhunMNkOnp3xdV8ZyM-69" value="Service Register" style="rounded=0;whiteSpace=wrap;html=1;fillColor=#ffe6cc;strokeColor=#d79b00;" vertex="1" parent="1">
          <mxGeometry x="512.5" y="1650" width="120" height="60" as="geometry" />
        </mxCell>
        <mxCell id="YMQhunMNkOnp3xdV8ZyM-70" style="edgeStyle=orthogonalEdgeStyle;rounded=0;orthogonalLoop=1;jettySize=auto;html=1;entryX=0.5;entryY=1;entryDx=0;entryDy=0;" edge="1" parent="1" source="YMQhunMNkOnp3xdV8ZyM-71" target="YMQhunMNkOnp3xdV8ZyM-69">
          <mxGeometry relative="1" as="geometry" />
        </mxCell>
        <mxCell id="YMQhunMNkOnp3xdV8ZyM-71" value="API Gateway" style="rounded=0;whiteSpace=wrap;html=1;" vertex="1" parent="1">
          <mxGeometry x="452.5" y="1810" width="140" height="80" as="geometry" />
        </mxCell>
        <mxCell id="YMQhunMNkOnp3xdV8ZyM-72" value="3 获取服务地址" style="text;html=1;align=center;verticalAlign=middle;resizable=0;points=[];autosize=1;strokeColor=none;fillColor=none;" vertex="1" parent="1">
          <mxGeometry x="442.5" y="1730" width="110" height="30" as="geometry" />
        </mxCell>
        <mxCell id="YMQhunMNkOnp3xdV8ZyM-76" value="IdentityService" style="ellipse;whiteSpace=wrap;html=1;" vertex="1" parent="1">
          <mxGeometry x="912.5" y="1900" width="120" height="80" as="geometry" />
        </mxCell>
        <mxCell id="YMQhunMNkOnp3xdV8ZyM-78" value="SideCar" style="rounded=0;whiteSpace=wrap;html=1;" vertex="1" parent="1">
          <mxGeometry x="1072.5" y="1910" width="120" height="60" as="geometry" />
        </mxCell>
        <mxCell id="YMQhunMNkOnp3xdV8ZyM-82" value="&lt;b&gt;&lt;font style=&quot;font-size: 20px;&quot;&gt;认证服务&lt;/font&gt;&lt;/b&gt;" style="rounded=0;whiteSpace=wrap;html=1;" vertex="1" parent="1">
          <mxGeometry x="392.5" y="2090" width="120" height="60" as="geometry" />
        </mxCell>
        <mxCell id="YMQhunMNkOnp3xdV8ZyM-87" style="edgeStyle=orthogonalEdgeStyle;rounded=0;orthogonalLoop=1;jettySize=auto;html=1;entryX=0;entryY=0.5;entryDx=0;entryDy=0;" edge="1" parent="1" source="YMQhunMNkOnp3xdV8ZyM-83" target="YMQhunMNkOnp3xdV8ZyM-84">
          <mxGeometry relative="1" as="geometry" />
        </mxCell>
        <mxCell id="YMQhunMNkOnp3xdV8ZyM-83" value="Consumer" style="ellipse;whiteSpace=wrap;html=1;" vertex="1" parent="1">
          <mxGeometry x="70" y="2300" width="120" height="80" as="geometry" />
        </mxCell>
        <mxCell id="YMQhunMNkOnp3xdV8ZyM-88" style="edgeStyle=orthogonalEdgeStyle;rounded=0;orthogonalLoop=1;jettySize=auto;html=1;entryX=0;entryY=0.5;entryDx=0;entryDy=0;" edge="1" parent="1">
          <mxGeometry relative="1" as="geometry">
            <mxPoint x="457.5" y="2385" as="sourcePoint" />
            <mxPoint x="737.5" y="2580" as="targetPoint" />
            <Array as="points">
              <mxPoint x="458" y="2580" />
            </Array>
          </mxGeometry>
        </mxCell>
        <mxCell id="YMQhunMNkOnp3xdV8ZyM-84" value="APIGateway" style="rounded=0;whiteSpace=wrap;html=1;" vertex="1" parent="1">
          <mxGeometry x="340" y="2295" width="235" height="90" as="geometry" />
        </mxCell>
        <mxCell id="YMQhunMNkOnp3xdV8ZyM-90" style="edgeStyle=orthogonalEdgeStyle;rounded=0;orthogonalLoop=1;jettySize=auto;html=1;" edge="1" parent="1" source="YMQhunMNkOnp3xdV8ZyM-85" target="YMQhunMNkOnp3xdV8ZyM-86">
          <mxGeometry relative="1" as="geometry" />
        </mxCell>
        <mxCell id="YMQhunMNkOnp3xdV8ZyM-85" value="UserService" style="ellipse;whiteSpace=wrap;html=1;" vertex="1" parent="1">
          <mxGeometry x="737.5" y="2295" width="120" height="80" as="geometry" />
        </mxCell>
        <mxCell id="YMQhunMNkOnp3xdV8ZyM-89" style="edgeStyle=orthogonalEdgeStyle;rounded=0;orthogonalLoop=1;jettySize=auto;html=1;entryX=1;entryY=0.5;entryDx=0;entryDy=0;" edge="1" parent="1" target="YMQhunMNkOnp3xdV8ZyM-85">
          <mxGeometry relative="1" as="geometry">
            <mxPoint x="860" y="2583" as="sourcePoint" />
            <mxPoint x="907.5" y="2338" as="targetPoint" />
            <Array as="points">
              <mxPoint x="928" y="2583" />
              <mxPoint x="928" y="2335" />
            </Array>
          </mxGeometry>
        </mxCell>
        <mxCell id="YMQhunMNkOnp3xdV8ZyM-86" value="Identity Service" style="ellipse;whiteSpace=wrap;html=1;" vertex="1" parent="1">
          <mxGeometry x="737.5" y="2540" width="120" height="80" as="geometry" />
        </mxCell>
        <mxCell id="YMQhunMNkOnp3xdV8ZyM-93" style="edgeStyle=orthogonalEdgeStyle;rounded=0;orthogonalLoop=1;jettySize=auto;html=1;entryX=0.106;entryY=0.989;entryDx=0;entryDy=0;entryPerimeter=0;exitX=0.5;exitY=1;exitDx=0;exitDy=0;" edge="1" parent="1" source="YMQhunMNkOnp3xdV8ZyM-86">
          <mxGeometry relative="1" as="geometry">
            <mxPoint x="836.3" y="2620.99" as="sourcePoint" />
            <mxPoint x="403.7100000000001" y="2385" as="targetPoint" />
            <Array as="points">
              <mxPoint x="798" y="2671" />
              <mxPoint x="404" y="2671" />
            </Array>
          </mxGeometry>
        </mxCell>
        <mxCell id="YMQhunMNkOnp3xdV8ZyM-94" value="api jessetalk cn/passport/authorize?&lt;div&gt;&lt;br&gt;&lt;/div&gt;&lt;div&gt;1&lt;/div&gt;" style="text;html=1;align=center;verticalAlign=middle;resizable=0;points=[];autosize=1;strokeColor=none;fillColor=none;" vertex="1" parent="1">
          <mxGeometry x="133.5" y="2385" width="210" height="60" as="geometry" />
        </mxCell>
        <mxCell id="YMQhunMNkOnp3xdV8ZyM-95" value="2" style="text;html=1;align=center;verticalAlign=middle;resizable=0;points=[];autosize=1;strokeColor=none;fillColor=none;" vertex="1" parent="1">
          <mxGeometry x="552.5" y="2540" width="30" height="30" as="geometry" />
        </mxCell>
        <mxCell id="YMQhunMNkOnp3xdV8ZyM-96" value="3" style="text;html=1;align=center;verticalAlign=middle;resizable=0;points=[];autosize=1;strokeColor=none;fillColor=none;" vertex="1" parent="1">
          <mxGeometry x="940" y="2428" width="30" height="30" as="geometry" />
        </mxCell>
        <mxCell id="YMQhunMNkOnp3xdV8ZyM-97" value="4" style="text;html=1;align=center;verticalAlign=middle;resizable=0;points=[];autosize=1;strokeColor=none;fillColor=none;" vertex="1" parent="1">
          <mxGeometry x="745" y="2428" width="30" height="30" as="geometry" />
        </mxCell>
        <mxCell id="YMQhunMNkOnp3xdV8ZyM-98" value="5" style="text;html=1;align=center;verticalAlign=middle;resizable=0;points=[];autosize=1;strokeColor=none;fillColor=none;" vertex="1" parent="1">
          <mxGeometry x="575" y="2680" width="30" height="30" as="geometry" />
        </mxCell>
        <mxCell id="YMQhunMNkOnp3xdV8ZyM-99" value="1. UserService CheckOrCreate Service&lt;div&gt;&amp;nbsp; &amp;nbsp;2. Identity Service Customer Validator&lt;/div&gt;&lt;div&gt;&amp;nbsp; &amp;nbsp; &amp;nbsp; &amp;nbsp; &amp;nbsp;3. Crossing Service request protect(polly)&lt;/div&gt;&lt;div&gt;&lt;span style=&quot;background-color: transparent; color: light-dark(rgb(0, 0, 0), rgb(255, 255, 255));&quot;&gt;4.Ocelot Authentication integrationi&lt;/span&gt;&lt;/div&gt;&lt;div&gt;&lt;span style=&quot;background-color: transparent; color: light-dark(rgb(0, 0, 0), rgb(255, 255, 255));&quot;&gt;5. Ocelot consul integration&lt;/span&gt;&lt;/div&gt;" style="rounded=0;whiteSpace=wrap;html=1;" vertex="1" parent="1">
          <mxGeometry x="982.5" y="2160" width="347.5" height="170" as="geometry" />
        </mxCell>
      </root>
    </mxGraphModel>
  </diagram>
</mxfile>
